# xmcd
#
# Track frame offsets:
#	150
#	15285
#	28668
#	43362
#	59053
#	74932
#	90466
#	106105
#	120205
#	135724
#	149991
#	165719
#	180199
#	195185
#	210075
#	225987
#	243764
#	258515
#	269933
#	287851
#	300226
#	316422
#
# Disc length: 4421 seconds
#
# Revision: 1
# Processed by: cddbd v1.5.2PL0 Copyright (c) Steve Scherf et al.
# Submitted via: dBpowerAMP V4.0
#
DISCID=36114316
DTITLE=Various Artist - ERG Nu Country Traxx Vol. 191 CAD
DYEAR=2010
DGENRE=Country
TTITLE0=Josh Turner - All Over Me
TTITLE1=Doc Walker - I'm Gonna Make You Love Me
TTITLE2=Jerrod Niemann - Lover, Lover
TTITLE3=Blake Shelton - All About Tonight
TTITLE4=Chris Janson - 'Til A Woman Comes Along
TTITLE5=Chuck Wicks - Hold That Thought
TTITLE6=Alex J. Robinson - Mindemoya
TTITLE7=Colt Ford - Chicken and Biscuits
TTITLE8=Rodney Atkins - Farmers Daughter
TTITLE9=Kate Armiger - Kiss Me Now
TTITLE10=Easton Corbin - Roll With It
TTITLE11=Blaine Larsen - Chillin'
TTITLE12=Bucky Covington - A Father's Love (The Only Way He Knew How)
TTITLE13=Trailer Choir - Rollin' Through The Sunshine
TTITLE14=Jake Owen - Tell Me
TTITLE15=Williams Riley - Sweet September
TTITLE16=Jessie Farrell - Heart Of Gold
TTITLE17=Tyler Dickerson - Tell Your Sister I'm Single
TTITLE18=Harters,The - Jenny
TTITLE19=Janedear Girls, The - Wildflower
TTITLE20=McClymonts, The - Save Yourself
TTITLE21=Tammy Cochran - He Really Thinks He's Got It
EXTD=
EXTT0=
EXTT1=
EXTT2=
EXTT3=
EXTT4=
EXTT5=
EXTT6=
EXTT7=
EXTT8=
EXTT9=
EXTT10=
EXTT11=
EXTT12=
EXTT13=
EXTT14=
EXTT15=
EXTT16=
EXTT17=
EXTT18=
EXTT19=
EXTT20=
EXTT21=
PLAYORDER=
